<svg width="748" height="118" viewBox="0 0 748 118" fill="none" xmlns="http://www.w3.org/2000/svg">
<path d="M114.712 41.9359L111.112 41.3119V38.3359H118.36C119.032 38.3359 120.072 38.3039 121.48 38.2399C123.336 38.1119 125.016 38.0479 126.52 38.0479C129.848 38.0479 132.472 38.4639 134.392 39.2959C136.344 40.0959 137.72 41.2639 138.52 42.7999C139.352 44.3039 139.768 46.2239 139.768 48.5599C139.768 52.5919 138.504 55.7279 135.976 57.9679C133.48 60.2079 130.008 61.3279 125.56 61.3279C123.8 61.3279 122.536 61.2799 121.768 61.1839V70.6399L128.2 71.1199V73.9999H110.92V71.1199L114.712 70.6399V41.9359ZM121.72 58.1119C122.456 58.2719 123.704 58.3519 125.464 58.3519C127.608 58.3519 129.32 57.6159 130.6 56.1439C131.912 54.6399 132.568 52.1599 132.568 48.7039C132.568 46.0159 131.976 44.0639 130.792 42.8479C129.64 41.5999 127.864 40.9759 125.464 40.9759C124.568 40.9759 123.64 41.0399 122.68 41.1679C122.232 41.2319 121.912 41.2639 121.72 41.2639V58.1119ZM147.022 41.9359L142.942 41.3119V38.3359H158.302V41.3119L154.078 41.9359V70.6399L158.302 71.1679V73.9999H142.942V71.1199L147.022 70.6399V41.9359ZM166.181 41.9359L162.389 41.3119V38.3359H173.285L187.589 59.9359L190.277 65.4079V41.9359L186.149 41.3119V38.3359H198.053V41.3119L194.357 41.9359V73.9999H188.549L173.621 51.2959L170.261 44.9599V70.6399L175.109 71.1199V73.9999H162.389V71.1199L166.181 70.6399V41.9359ZM204.712 41.9359L201.16 41.3119V38.3359H215.752V41.3119L211.72 41.9359V53.9839H226.312V41.9359L222.616 41.3119V38.3359H237.016V41.3119L233.368 41.9359V70.6399L237.016 71.1199V73.9999H222.568V71.1199L226.312 70.6399V57.6319H211.72V70.6399L215.752 71.1199V73.9999H201.064V71.1199L204.712 70.6399V41.9359ZM244.742 41.9359L240.902 41.3119V38.3359H266.486L267.11 46.3999H263.75L262.166 41.6479L251.798 41.2159V54.1279L258.47 53.9839L259.238 50.0479H262.31V61.6639H259.238L258.47 57.5359L251.798 57.3919V70.9279L263.414 70.3519L266.198 64.2079L269.798 65.2159L268.55 73.9999H240.95V71.1199L244.742 70.6399V41.9359ZM276.819 41.9359L272.739 41.3119V38.3359H288.099V41.3119L283.875 41.9359V70.6399L288.099 71.1679V73.9999H272.739V71.1199L276.819 70.6399V41.9359ZM292.138 71.1199L295.93 70.6399V41.9359L292.33 41.2639V38.3359H299.29C299.898 38.3359 300.57 38.3199 301.306 38.2879C302.042 38.2559 302.602 38.2239 302.986 38.1919C304.65 38.0639 306.026 37.9999 307.114 37.9999C310.41 37.9999 313.05 38.3359 315.034 39.0079C317.018 39.6799 318.458 40.7039 319.354 42.0799C320.25 43.4559 320.698 45.2639 320.698 47.5039C320.698 49.7119 320.106 51.7599 318.922 53.6479C317.738 55.5359 316.026 56.8319 313.786 57.5359C315.066 58.0799 316.202 59.0719 317.194 60.5119C318.186 61.9519 319.242 63.8239 320.362 66.1279C321.162 67.6959 321.77 68.8319 322.186 69.5359C322.634 70.2079 323.066 70.5919 323.482 70.6879L325.066 71.1679V73.9999H316.906C316.394 73.9999 315.85 73.4879 315.274 72.4639C314.73 71.4079 314.01 69.7599 313.114 67.5199C312.058 64.8959 311.146 62.8479 310.378 61.3759C309.61 59.9039 308.794 58.9919 307.93 58.6399H302.986V70.6399L307.402 71.1199V73.9999H292.138V71.1199ZM307.402 55.7119C309.226 55.7119 310.65 55.0559 311.674 53.7439C312.698 52.4319 313.21 50.4639 313.21 47.8399C313.21 45.5039 312.698 43.7759 311.674 42.6559C310.682 41.5359 308.954 40.9759 306.49 40.9759C305.594 40.9759 304.826 41.0239 304.186 41.1199C303.578 41.1839 303.178 41.2159 302.986 41.2159V55.6159C303.37 55.6799 304.298 55.7119 305.77 55.7119H307.402ZM341.899 74.5279C336.683 74.5279 332.779 72.8959 330.187 69.6319C327.595 66.3679 326.299 61.9199 326.299 56.2879C326.299 52.6079 326.971 49.3759 328.315 46.5919C329.691 43.8079 331.611 41.6639 334.075 40.1599C336.539 38.6559 339.371 37.9039 342.571 37.9039C347.851 37.9039 351.803 39.4719 354.427 42.6079C357.083 45.7119 358.411 50.0639 358.411 55.6639C358.411 59.3759 357.707 62.6719 356.299 65.5519C354.923 68.3999 352.987 70.6079 350.491 72.1759C347.995 73.7439 345.131 74.5279 341.899 74.5279ZM342.379 40.8319C339.755 40.8319 337.707 42.1279 336.235 44.7199C334.763 47.3119 334.027 51.1519 334.027 56.2399C334.027 61.2639 334.731 65.0879 336.139 67.7119C337.579 70.3039 339.627 71.5999 342.283 71.5999C344.875 71.5999 346.907 70.2399 348.379 67.5199C349.851 64.7679 350.587 60.8159 350.587 55.6639C350.587 50.6719 349.883 46.9599 348.475 44.5279C347.067 42.0639 345.035 40.8319 342.379 40.8319ZM376.836 41.9359L373.236 41.3119V38.3359H380.244C381.3 38.3359 382.724 38.2719 384.516 38.1439C384.932 38.1119 385.556 38.0799 386.388 38.0479C387.252 38.0159 388.02 37.9999 388.692 37.9999C394.58 37.9999 398.98 39.4719 401.892 42.4159C404.836 45.3599 406.308 49.5359 406.308 54.9439C406.308 58.7199 405.572 62.0799 404.1 65.0239C402.66 67.9679 400.596 70.2719 397.908 71.9359C395.22 73.5679 392.084 74.3839 388.5 74.3839C387.572 74.3839 386.116 74.3199 384.132 74.1919C382.276 74.0639 381.012 73.9999 380.34 73.9999H373.044V71.1199L376.836 70.6399V41.9359ZM383.796 70.7839C384.884 71.0719 386.404 71.2159 388.356 71.2159C391.556 71.1519 394.068 69.8719 395.892 67.3759C397.716 64.8479 398.628 61.0719 398.628 56.0479C398.628 51.2799 397.732 47.5999 395.94 45.0079C394.148 42.3839 391.364 41.0719 387.588 41.0719C386.788 41.0719 386.02 41.1199 385.284 41.2159C384.58 41.3119 384.084 41.3759 383.796 41.4079V70.7839ZM413.352 41.9359L409.512 41.3119V38.3359H435.096L435.72 46.3999H432.359L430.776 41.6479L420.408 41.2159V54.1279L427.08 53.9839L427.848 50.0479H430.92V61.6639H427.848L427.08 57.5359L420.408 57.3919V70.9279L432.024 70.3519L434.807 64.2079L438.408 65.2159L437.16 73.9999H409.56V71.1199L413.352 70.6399V41.9359ZM489.027 83.1679C487.619 83.1679 486.275 82.9279 484.995 82.4479C483.715 81.9999 482.563 81.4399 481.539 80.7679C480.515 80.0959 479.235 79.1999 477.699 78.0799C476.195 76.9919 474.963 76.1439 474.003 75.5359C473.075 74.9279 472.115 74.4799 471.123 74.1919C469.779 74.4159 468.611 74.5279 467.619 74.5279C462.435 74.5279 458.531 72.8959 455.907 69.6319C453.315 66.3679 452.019 61.9199 452.019 56.2879C452.019 52.6079 452.691 49.3759 454.035 46.5919C455.411 43.8079 457.331 41.6639 459.795 40.1599C462.259 38.6559 465.091 37.9039 468.291 37.9039C473.603 37.9039 477.571 39.4719 480.195 42.6079C482.819 45.7119 484.131 50.0639 484.131 55.6639C484.131 59.6319 483.331 63.1039 481.731 66.0799C480.163 69.0239 477.987 71.2319 475.203 72.7039C476.451 72.8639 477.667 73.1999 478.851 73.7119C480.067 74.2239 481.539 74.9279 483.267 75.8239C485.155 76.7839 486.723 77.5039 487.971 77.9839C489.251 78.4959 490.499 78.7519 491.715 78.7519C492.579 78.7519 493.299 78.6879 493.875 78.5599L494.499 80.7199C493.795 81.5839 492.995 82.2079 492.099 82.5919C491.235 82.9759 490.211 83.1679 489.027 83.1679ZM468.003 71.5999C470.595 71.5999 472.627 70.2399 474.099 67.5199C475.571 64.7679 476.307 60.8159 476.307 55.6639C476.307 50.6719 475.603 46.9599 474.195 44.5279C472.787 42.0639 470.755 40.8319 468.099 40.8319C465.475 40.8319 463.427 42.1279 461.955 44.7199C460.483 47.3119 459.747 51.1519 459.747 56.2399C459.747 61.2639 460.467 65.0879 461.907 67.7119C463.347 70.3039 465.379 71.5999 468.003 71.5999ZM504.074 74.3839C499.21 74.3839 495.594 73.1679 493.226 70.7359C490.858 68.3039 489.674 64.4799 489.674 59.2639V41.9359L486.506 41.3119V38.3359H501.002V41.3119L496.922 41.9839V59.8879C496.922 67.5039 499.626 71.3119 505.034 71.3119C507.69 71.3119 509.658 70.3359 510.938 68.3839C512.218 66.3999 512.858 63.6319 512.858 60.0799V41.9839L508.73 41.3119V38.3359H520.73V41.3119L517.466 41.9359V59.6959C517.466 64.6879 516.25 68.3839 513.818 70.7839C511.418 73.1839 508.17 74.3839 504.074 74.3839ZM526.93 41.9359L523.09 41.3119V38.3359H548.674L549.298 46.3999H545.938L544.354 41.6479L533.986 41.2159V54.1279L540.658 53.9839L541.426 50.0479H544.498V61.6639H541.426L540.658 57.5359L533.986 57.3919V70.9279L545.602 70.3519L548.386 64.2079L551.986 65.2159L550.738 73.9999H523.138V71.1199L526.93 70.6399V41.9359ZM559.007 41.9359L554.927 41.3119V38.3359H570.287V41.3119L566.063 41.9359V70.6399L570.287 71.1679V73.9999H554.927V71.1199L559.007 70.6399V41.9359ZM574.325 71.1199L578.117 70.6399V41.9359L574.517 41.2639V38.3359H581.477C582.085 38.3359 582.757 38.3199 583.493 38.2879C584.229 38.2559 584.789 38.2239 585.173 38.1919C586.837 38.0639 588.213 37.9999 589.301 37.9999C592.597 37.9999 595.237 38.3359 597.221 39.0079C599.205 39.6799 600.645 40.7039 601.541 42.0799C602.437 43.4559 602.885 45.2639 602.885 47.5039C602.885 49.7119 602.293 51.7599 601.109 53.6479C599.925 55.5359 598.213 56.8319 595.973 57.5359C597.253 58.0799 598.389 59.0719 599.381 60.5119C600.373 61.9519 601.429 63.8239 602.549 66.1279C603.349 67.6959 603.957 68.8319 604.373 69.5359C604.821 70.2079 605.253 70.5919 605.669 70.6879L607.253 71.1679V73.9999H599.093C598.581 73.9999 598.037 73.4879 597.461 72.4639C596.917 71.4079 596.197 69.7599 595.301 67.5199C594.245 64.8959 593.333 62.8479 592.565 61.3759C591.797 59.9039 590.981 58.9919 590.117 58.6399H585.173V70.6399L589.589 71.1199V73.9999H574.325V71.1199ZM589.589 55.7119C591.413 55.7119 592.837 55.0559 593.861 53.7439C594.885 52.4319 595.397 50.4639 595.397 47.8399C595.397 45.5039 594.885 43.7759 593.861 42.6559C592.869 41.5359 591.141 40.9759 588.677 40.9759C587.781 40.9759 587.013 41.0239 586.373 41.1199C585.765 41.1839 585.365 41.2159 585.173 41.2159V55.6159C585.557 55.6799 586.485 55.7119 587.957 55.7119H589.589ZM624.087 74.5279C618.871 74.5279 614.967 72.8959 612.375 69.6319C609.783 66.3679 608.487 61.9199 608.487 56.2879C608.487 52.6079 609.159 49.3759 610.503 46.5919C611.879 43.8079 613.799 41.6639 616.263 40.1599C618.727 38.6559 621.559 37.9039 624.759 37.9039C630.039 37.9039 633.991 39.4719 636.615 42.6079C639.271 45.7119 640.599 50.0639 640.599 55.6639C640.599 59.3759 639.895 62.6719 638.487 65.5519C637.111 68.3999 635.175 70.6079 632.679 72.1759C630.183 73.7439 627.319 74.5279 624.087 74.5279ZM624.567 40.8319C621.943 40.8319 619.895 42.1279 618.423 44.7199C616.951 47.3119 616.215 51.1519 616.215 56.2399C616.215 61.2639 616.919 65.0879 618.327 67.7119C619.767 70.3039 621.815 71.5999 624.471 71.5999C627.063 71.5999 629.095 70.2399 630.567 67.5199C632.039 64.7679 632.775 60.8159 632.775 55.6639C632.775 50.6719 632.071 46.9599 630.663 44.5279C629.255 42.0639 627.223 40.8319 624.567 40.8319ZM663.617 41.0239L651.137 41.6959L648.545 48.1759L644.993 47.6959L646.097 38.2399H670.433L671.585 40.7839L654.209 67.7599L650.897 71.0719L665.681 70.1119L668.369 62.6719L672.017 63.3919L670.913 73.9999H644.513L643.025 71.4559L660.785 44.3359L663.617 41.0239Z" fill="#002240"/>
<path d="M36.9813 117.077V108.156C40.1042 104.676 44.1181 102.982 49.1143 102.982C50.8984 102.982 52.683 103.249 54.6455 103.785C56.5188 104.23 59.2844 105.301 62.7638 106.818C64.8156 107.62 66.3324 108.245 67.3135 108.423C68.295 108.691 69.3653 108.87 70.3463 108.87C72.2205 108.87 74.183 108.334 76.2344 107.174C78.1974 106.015 79.9819 104.587 81.5871 102.892V112.171C79.7138 113.865 77.8405 115.115 75.9671 115.917C74.0046 116.72 71.8632 117.077 69.5437 117.077C67.7596 117.077 66.0643 116.899 64.5479 116.453C62.9423 116.006 60.4444 115.025 56.965 113.509C53.5748 111.992 50.6308 111.189 48.401 111.189C46.5268 111.189 44.7427 111.546 43.1371 112.349C41.4422 113.152 39.39 114.758 36.9813 117.077Z" fill="#002240"/>
<path d="M91.137 35.4259C92.3762 40.2263 93 45.3709 93 50.8516C93 56.9499 92.1916 62.6026 90.6029 67.7946C86.1358 82.3962 75.6687 93.6609 61.2609 98.8059L56.5307 100.066L56.5972 100.043L56.2299 100.079L56.2452 100.134L56.2551 100.131L55.6033 100.247L55.6037 100.242L47.1116 101.139C46.2937 101.126 45.1482 101.039 44.1762 101.097C38.3047 100.633 31.6507 99.3809 26.9272 97.1891C24.5251 96.0746 22.2692 94.7779 20.1642 93.3045L27.441 87.3705C32.6227 92.948 38.8747 95.3744 46.5002 95.3744C56.1448 95.3744 64.24 90.6529 69.2152 82.4107C71.73 78.2439 73.6157 73.5641 74.7773 68.3308C76.2818 61.55 76.7052 54.3343 76.4635 47.3916L91.137 35.4259ZM0.822861 61.1308C0.275114 57.8414 0 54.4149 0 50.8516C0 42.9857 1.22272 35.9489 3.67725 29.7902C8.38267 17.9844 16.9116 8.49132 28.7418 3.56037C34.4015 1.20167 40.3094 5.30656e-06 46.5002 5.30656e-06C54.3735 5.30656e-06 61.9565 1.8564 68.843 5.65965L62.2209 11.0599C57.5473 7.53421 52.3656 6.00415 46.5002 6.00415C41.031 6.00415 36.3896 7.25125 32.5827 9.75122C24.1777 15.2696 20.1365 24.3082 18.1533 33.8624C17.1925 38.4906 16.6443 43.3125 16.5105 48.3376L0.822861 61.1308Z" fill="#002240"/>
<path fill-rule="evenodd" clip-rule="evenodd" d="M20.3612 72.3101L72.3042 71.759L46.1132 39.479L20.3612 72.3101Z" fill="#84B037"/>
<path fill-rule="evenodd" clip-rule="evenodd" d="M32.0835 52.5545L25.5826 52.6235L46.1197 26.4408L67.0069 52.184L60.2927 52.2552L46.0689 34.7246L32.0835 52.5545Z" fill="#84B037"/>
<path fill-rule="evenodd" clip-rule="evenodd" d="M38.3861 33.0423L30 33.1313L45.7905 13L61.8503 32.7934L53.9067 32.8776L46.0808 23.2323L38.3861 33.0423Z" fill="#84B037"/>
</svg>
