<svg width="93" height="118" viewBox="0 0 93 118" fill="none" xmlns="http://www.w3.org/2000/svg">
<path d="M36.9813 117.077V108.156C40.1042 104.676 44.1181 102.982 49.1143 102.982C50.8984 102.982 52.683 103.249 54.6455 103.785C56.5188 104.23 59.2844 105.301 62.7638 106.818C64.8156 107.62 66.3324 108.245 67.3135 108.423C68.295 108.691 69.3653 108.87 70.3463 108.87C72.2205 108.87 74.183 108.334 76.2344 107.174C78.1974 106.015 79.9819 104.587 81.5871 102.892V112.171C79.7138 113.865 77.8405 115.115 75.9671 115.917C74.0046 116.72 71.8632 117.077 69.5437 117.077C67.7596 117.077 66.0643 116.899 64.5479 116.453C62.9423 116.006 60.4444 115.025 56.965 113.509C53.5748 111.992 50.6308 111.189 48.401 111.189C46.5268 111.189 44.7427 111.546 43.1371 112.349C41.4422 113.152 39.39 114.758 36.9813 117.077Z" fill="#002240"/>
<path d="M91.137 35.4259C92.3762 40.2264 93 45.3709 93 50.8517C93 56.95 92.1916 62.6026 90.6029 67.7946C86.1358 82.3962 75.6687 93.661 61.2609 98.8059L56.5307 100.066L56.5972 100.043L56.2299 100.079L56.2452 100.134L56.2551 100.131L55.6033 100.247L55.6037 100.242L47.1116 101.139C46.2937 101.126 45.1482 101.039 44.1762 101.097C38.3047 100.633 31.6507 99.3809 26.9272 97.1891C24.5251 96.0746 22.2692 94.7779 20.1642 93.3045L27.441 87.3706C32.6227 92.948 38.8747 95.3744 46.5002 95.3744C56.1448 95.3744 64.24 90.6529 69.2152 82.4107C71.73 78.2439 73.6157 73.5641 74.7773 68.3308C76.2818 61.5501 76.7052 54.3343 76.4635 47.3917L91.137 35.4259ZM0.822861 61.1308C0.275114 57.8414 0 54.4149 0 50.8517C0 42.9857 1.22272 35.9489 3.67725 29.7903C8.38267 17.9844 16.9116 8.49135 28.7418 3.5604C34.4015 1.2017 40.3094 3.58241e-05 46.5002 3.58241e-05C54.3735 3.58241e-05 61.9565 1.85643 68.843 5.65968L62.2209 11.0599C57.5473 7.53424 52.3656 6.00418 46.5002 6.00418C41.031 6.00418 36.3896 7.25128 32.5827 9.75125C24.1777 15.2696 20.1365 24.3083 18.1533 33.8624C17.1925 38.4906 16.6443 43.3125 16.5105 48.3376L0.822861 61.1308Z" fill="#002240"/>
<path fill-rule="evenodd" clip-rule="evenodd" d="M20.3612 72.3101L72.3042 71.759L46.1132 39.479L20.3612 72.3101Z" fill="#84B037"/>
<path fill-rule="evenodd" clip-rule="evenodd" d="M32.0835 52.5545L25.5826 52.6235L46.1197 26.4408L67.0069 52.184L60.2927 52.2552L46.0689 34.7245L32.0835 52.5545Z" fill="#84B037"/>
<path fill-rule="evenodd" clip-rule="evenodd" d="M38.3861 33.0423L30 33.1313L45.7905 13L61.8503 32.7934L53.9067 32.8776L46.0808 23.2323L38.3861 33.0423Z" fill="#84B037"/>
</svg>
